<?xml version="1.0" encoding="UTF-8"?>
<svg xmlns="http://www.w3.org/2000/svg" width="8220.71214" height="6214.84355" viewBox="0 0 8220.71214 6214.84355">
  <g id="Stage">
    <g id="Solid">
      <polygon points="5344.68172 2383.93656 5292.34066 2480.52292 5227.09749 2480.52292 5227.09749 2633.7706 6122.80379 2633.7706 6122.80379 2480.52292 5588.93953 2480.52292 5344.68172 2383.93656 5344.68172 2383.93656"/>
    </g>
    <g id="Solid-2" data-name="Solid">
      <polygon points="3332.63875 2545.78763 3332.63875 2633.7706 3611.39095 2633.7706 3611.39095 2748.70633 3536.08822 2748.70633 3536.08822 2773.80741 3640.45528 2773.80741 3640.45528 2633.7706 4220.41854 2633.7706 4220.41854 2720.96329 4220.41854 2748.70633 4308.93245 2748.70633 4308.93245 2719.64212 4248.1617 2719.64212 4248.1617 2633.7706 4791.13411 2633.7706 4791.13411 2717.00003 4816.23519 2717.00003 4816.23519 2633.7706 5072.52865 2633.7706 5072.52865 2480.52292 5006.03011 2480.52292 4952.59481 2337.41471 4703.23006 2480.52292 4537.57796 2480.52292 4386.50301 2364.49723 4309.83724 2470.00156 3986.1766 2276.5502 3759.11275 2480.52292 3583.0223 2480.52292 3295.2408 2308.51639 3331.58602 2545.94876 3332.63875 2545.78763 3332.63875 2545.78763"/>
    </g>
    <g id="Solid-3" data-name="Solid">
      <polygon points="5622.76717 3001.03665 5587.75789 3001.03665 5587.75789 3104.74308 5455.64803 3104.74308 5455.64803 2909.88077 5397.51937 2851.75235 5338.0223 2911.24942 5338.0223 2995.09171 5243.61117 2995.09171 5243.61117 2963.38529 5145.84969 2963.38529 5036.52865 2854.06424 4888.89559 3001.6973 4888.89559 3127.20182 4756.12508 3127.20182 4756.12508 3084.26602 4575.79476 3084.26602 4575.79476 2972.63297 4538.14339 2972.63297 4538.14339 3108.70645 4466.80379 3108.70645 4466.80379 3036.70645 4411.31771 3036.70645 4411.31771 3139.09171 4281.84969 3139.09171 4281.84969 3066.43119 4254.10665 3066.43119 4254.10665 3119.93582 4070.47359 3119.93582 4070.47359 2989.14676 3931.42769 2850.10086 3931.42769 3119.27518 3946.95064 3215.05497 3933.07918 3314.13761 3943.42769 3336.59635 3990.98739 3383.27518 4036.34517 3426.87162 4063.64791 3440.08255 4098.54696 3451.20182 4133.88643 3442.61466 4240.23507 3401.33023 4337.99642 3359.05509 4487.28084 3357.73392 4603.53792 3415.86234 4730.61239 3427.75235 4869.07918 3393.40372 4956.27181 3392.08255 5014.40023 3425.11014 5087.06087 3466.06424 5155.75789 3433.03665 5223.13411 3390.76151 5328.82235 3398.68802 5459.61117 3426.43119 5623.42782 3427.75235 5661.73958 3384.15592 5811.02401 3356.41288 6128.08822 3356.41288 6128.08822 3161.55045 5622.76717 3161.55045 5622.76717 3001.03665 5622.76717 3001.03665"/>
    </g>
    <g id="Solid-4" data-name="Solid">
      <polygon points="3257.33602 3444.92655 3257.33602 3555.89908 3485.35799 3555.89908 3565.48325 3505.36692 3692.85917 3477.95444 3723.24422 3452.85318 3743.50118 3414.9816 3750.54696 3365.22013 3758.47359 3348.48624 3783.13411 3326.90824 3793.04244 3324.23831 3744.82223 3158.08255 3714.43685 3119.27518 3714.43685 3026.13761 3553.26253 3026.13761 3553.26253 3160.88993 3336.60213 3160.88993 3212.41887 3208.45135 3121.26259 3221.00003 3023.50112 3210.43119 2970.65706 3181.36698 2929.04244 3134.53861 2899.31969 3030.10017 2901.95986 2983.20182 2927.06075 2954.79813 2970.65706 2933.00003 3007.64791 2933.00003 3024.82223 2959.35257 3030.10665 2979.89908 3036.71212 2964.04593 3036.71212 2937.62381 3022.8406 2915.82572 3053.88643 2908.5596 3077.0057 2915.16507 3091.5378 2923.75223 3065.77575 2893.04431 3005.66628 2885.44034 3030.10665 2858.3577 3062.47359 2850.10086 3081.6296 2850.10086 3096.82223 2855.05497 3084.93233 2837.88065 3055.20754 2827.31192 3023.50112 2827.31192 2989.15249 2847.12845 2993.77633 2822.68802 3008.30849 2795.6055 3034.06991 2781.73392 2966.03322 2799.56888 2945.55617 2841.18338 2862.32636 2893.04341 2829.29928 2950.83487 2831.94149 3061.80741 2871.57454 3176.74308 2936.30849 3242.79813 3003.68459 3280.4495 3003.68459 3444.92655 3257.33602 3444.92655 3257.33602 3444.92655"/>
    </g>
    <g id="Solid-5" data-name="Solid">
      <polygon points="5348.63875 4339.97245 5309.66634 4325.44022 5246.2535 4318.17435 5120.08822 4353.84403 4985.33602 4374.32108 4863.79476 4353.18338 4752.1617 4351.86234 4626.65706 4371.01834 4513.70296 4361.11014 4448.30843 4339.3118 4277.22591 4334.68802 4189.37264 4356.48612 4172.85897 4419.23856 4172.85897 4645.62088 4188.71212 4649.69754 4263.01095 4632.25907 4301.22909 4653.66068 4335.13094 4630.67362 4414.62044 4661.58744 4454.2535 4636.2222 4509.73958 4672.6846 4537.48275 4644.94144 4596.93245 4672.6846 4599.57454 4670.4534 4599.57454 4782.54129 4674.87728 4782.54129 4674.87728 4654.18924 4696.01497 4660.00199 4707.90487 4637.80741 4783.2076 4660.79471 4795.09749 4635.42948 4870.40023 4656.68631 4910.03328 4638.60013 4965.51937 4656.68631 5001.18929 4632.25907 5064.60213 4646.52689 5108.19832 4630.67362 5171.61117 4651.28275 5261.27743 4637.01493 5261.27743 4660.00199 5335.42782 4635.42948 5381.66634 4656.68631 5433.18929 4630.67362 5468.85897 4663.17264 5540.19832 4632.25907 5603.61117 4660.00199 5619.46444 4633.05155 5698.73055 4652.07547 5710.62044 4633.84427 5759.93831 4653.66068 5817.62972 4639.39286 5885.0057 4656.68631 5896.89559 4632.25907 5999.94149 4656.68631 5999.94149 4633.05155 6029.66634 4640.97831 6029.66634 4947.01834 6104.96908 4947.01834 6104.96908 4637.49906 6142.62044 4656.68631 6198.10677 4633.05155 6313.04232 4570.50467 6506.72445 4570.50467 6506.72445 4411.97245 6431.94124 4411.97245 6431.94124 4084.33939 6309.07918 4084.33939 6309.07918 4219.91727 6309.07918 4408.66971 5348.63875 4408.66971 5348.63875 4339.97245 5348.63875 4339.97245"/>
    </g>
    <g id="Solid-6" data-name="Solid">
      <polygon points="3524.85897 4108.77982 3604.12496 4027.53202 3705.18917 3998.79813 3818.14327 4002.76151 3891.46444 4035.45877 4015.31759 4077.07328 4145.1158 4068.15604 4248.1617 4031.49539 4380.62484 4019.6055 4466.14339 4042.39456 4596.93221 4066.17435 4738.62044 4052.30277 4810.95077 4041.4036 4989.2994 4013.66043 5122.06991 4023.56888 5220.1617 4050.32108 5247.90487 4060.22928 5286.54696 4063.20194 5320.23519 4042.39456 5346.98739 3977.99076 5346.98739 3926.46781 5329.15243 3873.76541 5302.40023 3849.18338 5207.28084 3824.41288 5157.73958 3806.57791 5124.0516 3761.00003 5088.38192 3721.36698 5034.21663 3689.33023 4970.80379 3669.51371 4895.50106 3669.51371 4838.70296 3685.36698 4809.62972 3717.0734 4748.85897 3730.28446 4688.08822 3713.11014 4619.72127 3727.31205 4582.06991 3769.91751 4517.66634 3790.72489 4467.13411 3766.94486 4444.34505 3731.27518 4415.61117 3678.32108 4343.28084 3659.93582 4318.18001 3665.88077 4173.84969 3698.57804 4152.0516 3727.31205 4127.28097 3761.99076 4077.73971 3762.98172 4042.06991 3739.20194 4010.36348 3707.49539 3962.80391 3683.71561 3911.28097 3679.75235 3827.06075 3690.6514 3791.39107 3716.41288 3784.45528 3738.21097 3771.57454 3776.85331 3734.91402 3821.44046 3650.69381 3836.85233 3540.71212 3824.41288 3498.10665 3801.62381 3477.7159 3775.20194 3257.33602 3775.20194 3257.33602 3836.85233 3232.23507 3983.76712 3192.60207 4084.33939 3176.74886 4187.38529 3176.74886 4269.29349 3197.88643 4319.00003 3232.23507 4393.47708 3234.87728 4473.4036 3217.04244 4542.63236 3229.59286 4602.21097 3257.33602 4641.84403 3257.33602 4640.18558 3304.89559 4656.68631 3360.38192 4637.01493 3400.01497 4651.28275 3447.49019 4630.67362 3542.69381 4672.6846 3602.14339 4635.42948 3656.41097 4653.66068 3701.22591 4633.84427 3784.45528 4648.11209 3847.86812 4636.2222 3883.5378 4650.49002 3942.98739 4633.84427 3982.62044 4652.8682 4019.61117 4642.1409 4019.61117 4413.95414 4005.73958 4362.43119 3963.46444 4311.56888 3939.68465 4264.66971 3929.77633 4227.01834 3929.54793 4226.68802 4028.19832 4226.68802 4028.19832 4198.61454 3888.1617 4198.61454 3872.96908 4202.57791 3857.1158 4217.77054 3849.18929 4246.17435 3841.92318 4351.20194 3832.01497 4392.15604 3812.19832 4410.6514 3779.83138 4425.84403 3716.41854 4435.09159 3596.19832 4432.4495 3516.93233 4409.33036 3485.88643 4376.30277 3471.70247 4301.65384 3478.29012 4189.03665 3524.85897 4108.77982 3524.85897 4108.77982"/>
    </g>
    <g id="Solid-7" data-name="Solid">
      <polygon points="2794.14419 1964.63303 3236.15963 1964.63303 3269.22591 1994.35776 3369.6495 2033.08805 3507.02401 2045.78165 3667.8055 2033.08805 3812.19832 1982.59037 3998.47359 1964.63303 4149.36532 1982.59037 4354.38387 2002.2844 4589.0057 1982.59037 4751.50106 2006.24771 4866.43685 2033.08805 5064.60213 2033.08805 5286.54696 1982.59037 5524.34505 2002.2844 5659.09749 2045.78165 5817.62972 2014.17429 5885.99618 1964.63303 6873.18929 1964.63303 6873.18929 2188.5596 7472.70296 2188.5596 7472.70296 1635.19266 7186.15706 1635.19266 6899.61117 1635.19266 2442.2167 1635.19266 2418.43691 1635.19266 2240.70296 1635.19266 2240.70296 2188.5596 2599.31045 2188.5596 2794.14419 1964.63303 2794.14419 1964.63303"/>
    </g>
    <g id="Solid-8" data-name="Solid">
      <polygon points="6873.18929 5101.11917 6156.49203 5101.11917 6104.96908 5072.52298 5508.49203 5072.52298 5508.49203 4947.01834 5433.18929 4947.01834 5433.18929 5072.52298 5039.50106 5072.52298 5039.50106 5114.79813 4243.90072 5114.79813 4243.90072 5059.3118 3958.18001 5059.3118 3958.18001 4989.75858 3882.87728 4989.75858 3882.87728 5059.3118 3185.8406 5059.3118 3185.8406 5111.22025 2590.55098 5111.22025 2576.96901 5048.74295 2592.82223 4947.01834 2650.95064 4805.66043 2650.95064 4771.49173 2240.70296 4771.49173 2240.70296 5295.08622 2418.43691 5295.08622 2418.43691 5335.19266 6899.61117 5335.19266 7472.70296 5335.19266 7472.70296 5144.32743 7472.70296 4771.49173 6873.18929 4771.49173 6873.18929 5101.11917 6873.18929 5101.11917"/>
    </g>
    <polygon id="Solid-9" data-name="Solid" points="6873.18929 2188.5596 6873.18929 3163.53202 6782.03304 3163.53202 6782.03304 3348.48624 6817.70296 3348.48624 6817.70296 3643.09171 6751.64779 3643.09171 6751.64779 3788.41288 6812.41878 3788.41288 6812.41878 4163.6055 6873.18929 4163.6055 6873.18929 4414.61454 6783.35433 4414.61454 6783.35433 4570.15946 6873.18929 4570.15946 6873.18929 4771.49173 7472.70296 4771.49173 7472.70296 2188.5596 6873.18929 2188.5596 6873.18929 2188.5596"/>
    <polygon id="Solid-10" data-name="Solid" points="2650.95064 4672.6846 2624.52865 4542.63236 2566.40023 4462.22489 2550.54702 4378.512 2566.40023 4226.68802 2613.95986 4134.54129 2650.95064 4018.28446 2650.95064 3917.88065 2582.25344 3759.34867 2492.41854 3663.89896 2492.41854 2311.41275 2599.31045 2188.5596 2240.70296 2188.5596 2240.70296 4771.49173 2650.95064 4771.49173 2650.95064 4672.6846 2650.95064 4672.6846"/>
    <g id="Solid-11" data-name="Solid">
      <polygon points="5813.33602 3912.59623 5813.33602 3834.6514 5900.66634 3834.6514 5900.66634 3833.33036 5900.66634 3803.76712 5759.93831 3803.76712 5759.93831 3944.49515 5900.66634 3944.49515 5900.66634 3912.59623 5813.33602 3912.59623 5813.33602 3912.59623"/>
    </g>
  </g>
  <g id="Objects">
    <rect id="Character" x="3656.41094" y="4296.21101" width="22.78899" height="22.78899" style="fill: red;"/>
  </g>
</svg>